# Blender v2.76 (sub 0) OBJ File: 'aframe1.blend'
# www.blender.org
mtllib aframeHouse1.mtl
o Cube
v 0.000000 -0.287849 -0.000001
v 0.000000 -0.287849 5.002100
v -5.002101 -0.287849 5.002100
v -5.002100 -0.287849 -0.000001
v 0.000001 -0.287849 -5.002101
v -5.002099 -0.287849 -5.002102
v 5.002100 -0.287849 0.000000
v 5.002100 -0.287849 5.002100
v -0.000001 0.314681 5.002100
v -0.698604 0.314681 5.002100
v -0.698604 0.317707 5.002100
v -5.002102 0.317707 5.002099
v -5.002100 0.317707 -0.000001
v 0.000001 0.314681 -5.002100
v -5.002099 0.317707 -5.002102
v -0.698604 0.317707 -5.002100
v -0.698604 0.314681 -5.002101
v 5.002100 -0.287849 -5.002100
v 5.002100 0.317707 0.000001
v 5.002099 0.317707 5.002102
v 0.698604 0.317707 5.002100
v 0.698604 0.314681 5.002100
v -0.000002 2.852652 5.002100
v -0.000002 7.271669 5.002101
v -5.002102 0.437380 5.002099
v -0.698604 2.852652 5.002100
v -5.002101 0.437380 -0.000001
v 5.002102 0.317707 -5.002099
v 0.698604 0.314681 -5.002100
v 0.698604 0.317707 -5.002100
v 0.000001 7.271669 -5.002100
v 0.000001 2.852652 -5.002100
v -0.698604 2.852652 -5.002100
v -5.002100 0.437380 -5.002100
v 5.002100 0.437380 0.000002
v 5.002098 0.437380 5.002103
v 0.698604 2.852652 5.002101
v -5.333227 0.453721 5.333223
v -5.333226 0.453721 -0.000001
v 5.002103 0.437380 -5.002098
v 0.698604 2.852652 -5.002100
v 0.000001 8.261801 -5.333224
v -5.333225 0.453721 -5.333225
v 5.333225 0.453721 0.000003
v 5.333222 0.453721 5.333229
v -0.000003 8.261801 5.333225
v -0.000001 8.261801 0.000001
v 5.333228 0.453721 -5.333223
vt 0.527166 0.242632
vt 0.693973 0.242632
vt 0.693973 0.465231
vt 0.527166 0.465231
vt 0.360359 0.242632
vt 0.360359 0.465231
vt 0.527166 0.020034
vt 0.693973 0.020034
vt 0.902853 0.727897
vt 0.882760 0.727897
vt 0.882760 0.696808
vt 0.882659 0.696808
vt 0.882659 0.505298
vt 0.902853 0.505299
vt 0.321312 0.979966
vt 0.301119 0.979966
vt 0.301119 0.757367
vt 0.321312 0.757367
vt 0.247010 0.757368
vt 0.267103 0.757368
vt 0.267103 0.979966
vt 0.246909 0.979966
vt 0.246909 0.788456
vt 0.247010 0.788456
vt 0.360359 0.020034
vt 0.301119 0.534769
vt 0.321312 0.534769
vt 0.743968 0.242632
vt 0.727293 0.242632
vt 0.727293 0.020034
vt 0.743968 0.020034
vt 0.902853 0.950495
vt 0.882659 0.950495
vt 0.882659 0.758986
vt 0.882760 0.758986
vt 0.798125 0.727897
vt 0.650763 0.727897
vt 0.878668 0.505298
vt 0.798125 0.696808
vt 0.297128 0.979966
vt 0.297128 0.757368
vt 0.246909 0.534769
vt 0.267103 0.534769
vt 0.247010 0.726279
vt 0.246909 0.726279
vt 0.015013 0.757368
vt 0.162375 0.757368
vt 0.162375 0.788456
vt 0.242918 0.979966
vt 0.743969 0.465231
vt 0.727293 0.465231
vt 0.297128 0.534769
vt 0.723998 0.242632
vt 0.723998 0.020034
vt 0.878668 0.950495
vt 0.798125 0.758986
vt 0.783191 0.433109
vt 0.773994 0.056418
vt 0.792617 0.020034
vt 0.792617 0.440820
vt 0.943920 0.965231
vt 0.932878 0.979966
vt 0.932878 0.742632
vt 0.943920 0.742632
vt 0.242918 0.534769
vt 0.162375 0.726279
vt 0.871291 0.404436
vt 0.880488 0.027744
vt 0.889914 0.020034
vt 0.889914 0.440820
vt 0.723998 0.465231
vt 0.932878 0.505298
vt 0.943920 0.520034
vt 0.984987 0.742632
vt 0.973945 0.742632
vt 0.973945 0.505298
vt 0.984987 0.520034
vt 0.919939 0.404435
vt 0.929137 0.027744
vt 0.938562 0.020034
vt 0.938562 0.440820
vt 0.360359 0.742632
vt 0.620737 0.742632
vt 0.620737 0.979966
vt 0.360359 0.979966
vt 0.831840 0.433109
vt 0.822642 0.056418
vt 0.841265 0.020034
vt 0.841265 0.440820
vt 0.984987 0.965231
vt 0.973945 0.979966
vt 0.360359 0.505298
vt 0.620737 0.505298
vt 0.015013 0.257368
vt 0.330334 0.257368
vt 0.330334 0.494701
vt 0.015013 0.494701
vt 0.015013 0.020034
vt 0.330334 0.020034
vn 0.000000 -1.000000 0.000000
vn -0.000000 -0.000000 1.000000
vn -1.000000 -0.000000 -0.000000
vn 0.000000 0.000000 -1.000000
vn 1.000000 0.000000 0.000000
vn 0.501800 -0.354200 0.789200
vn -0.049300 -0.998800 -0.000000
vn 0.501800 -0.354200 -0.789200
vn 0.049300 -0.998800 0.000000
vn -0.501800 -0.354200 0.789200
vn -0.825800 0.564000 -0.000000
vn -0.501800 -0.354200 -0.789200
vn 0.825800 0.564000 0.000000
usemtl Material
s off
f 1/1/1 2/2/1 3/3/1 4/4/1
f 5/5/1 1/1/1 4/4/1 6/6/1
f 7/7/1 8/8/1 2/2/1 1/1/1
f 2/9/2 9/10/2 10/11/2 11/12/2 12/13/2 3/14/2
f 3/15/3 12/16/3 13/17/3 4/18/3
f 14/19/4 5/20/4 6/21/4 15/22/4 16/23/4 17/24/4
f 18/25/1 7/7/1 1/1/1 5/5/1
f 4/18/3 13/17/3 15/26/3 6/27/3
f 7/28/5 19/29/5 20/30/5 8/31/5
f 8/32/2 20/33/2 21/34/2 22/35/2 9/10/2 2/9/2
f 23/36/2 24/37/2 25/38/2 12/13/2 11/12/2 26/39/2
f 12/16/3 25/40/3 27/41/3 13/17/3
f 28/42/4 18/43/4 5/20/4 14/19/4 29/44/4 30/45/4
f 31/46/4 32/47/4 33/48/4 16/23/4 15/22/4 34/49/4
f 18/50/5 28/51/5 19/29/5 7/28/5
f 13/17/3 27/41/3 34/52/3 15/26/3
f 19/29/5 35/53/5 36/54/5 20/30/5
f 20/33/2 36/55/2 24/37/2 23/36/2 37/56/2 21/34/2
f 25/57/6 24/58/6 46/59/6 38/60/6
f 25/61/7 38/62/7 39/63/7 27/64/7
f 40/65/4 28/42/4 30/45/4 41/66/4 32/47/4 31/46/4
f 31/67/8 34/68/8 43/69/8 42/70/8
f 28/51/5 40/71/5 35/53/5 19/29/5
f 27/64/7 39/63/7 43/72/7 34/73/7
f 35/74/9 44/75/9 45/76/9 36/77/9
f 24/78/10 36/79/10 45/80/10 46/81/10
f 47/82/11 39/83/11 38/84/11 46/85/11
f 40/86/12 31/87/12 42/88/12 48/89/12
f 40/90/9 48/91/9 44/75/9 35/74/9
f 42/92/11 43/93/11 39/83/11 47/82/11
f 44/94/13 47/95/13 46/96/13 45/97/13
f 48/98/13 42/99/13 47/95/13 44/94/13
